<?xml version="1.0" encoding="UTF-8" standalone="no"?>
<!-- Created with Inkscape (http://www.inkscape.org/) -->
<svg
   xmlns:dc="http://purl.org/dc/elements/1.1/"
   xmlns:cc="http://web.resource.org/cc/"
   xmlns:rdf="http://www.w3.org/1999/02/22-rdf-syntax-ns#"
   xmlns:svg="http://www.w3.org/2000/svg"
   xmlns="http://www.w3.org/2000/svg"
   xmlns:xlink="http://www.w3.org/1999/xlink"
   xmlns:sodipodi="http://sodipodi.sourceforge.net/DTD/sodipodi-0.dtd"
   xmlns:inkscape="http://www.inkscape.org/namespaces/inkscape"
   width="744.09448819"
   height="1052.3622047"
   id="svg2"
   sodipodi:version="0.32"
   inkscape:version="0.45.1"
   sodipodi:docbase="C:\Documents and Settings\animator\Desktop"
   sodipodi:docname="blue_sky_white_clouds.svg"
   inkscape:output_extension="org.inkscape.output.svg.inkscape">
  <defs
     id="defs4">
    <linearGradient
       inkscape:collect="always"
       id="linearGradient4421">
      <stop
         style="stop-color:#00a8f0;stop-opacity:1;"
         offset="0"
         id="stop4423" />
      <stop
         style="stop-color:#00a8f0;stop-opacity:0;"
         offset="1"
         id="stop4425" />
    </linearGradient>
    <linearGradient
       inkscape:collect="always"
       xlink:href="#linearGradient4421"
       id="linearGradient4427"
       x1="494.28571"
       y1="65.219322"
       x2="435.71429"
       y2="1199.505"
       gradientUnits="userSpaceOnUse" />
    <filter
       inkscape:collect="always"
       id="filter4481">
      <feGaussianBlur
         inkscape:collect="always"
         stdDeviation="4.1341802"
         id="feGaussianBlur4483" />
    </filter>
  </defs>
  <sodipodi:namedview
     id="base"
     pagecolor="#ffffff"
     bordercolor="#666666"
     borderopacity="1.0"
     gridtolerance="10000"
     guidetolerance="10"
     objecttolerance="10"
     inkscape:pageopacity="0.0"
     inkscape:pageshadow="2"
     inkscape:zoom="0.7"
     inkscape:cx="344.76"
     inkscape:cy="344.57143"
     inkscape:document-units="px"
     inkscape:current-layer="layer1"
     inkscape:window-width="1280"
     inkscape:window-height="968"
     inkscape:window-x="-4"
     inkscape:window-y="-4" />
  <metadata
     id="metadata7">
    <rdf:RDF>
      <cc:Work
         rdf:about="">
        <dc:format>image/svg+xml</dc:format>
        <dc:type
           rdf:resource="http://purl.org/dc/dcmitype/StillImage" />
      </cc:Work>
    </rdf:RDF>
  </metadata>
  <g
     inkscape:label="Layer 1"
     inkscape:groupmode="layer"
     id="layer1">
    <rect
       style="opacity:1;fill:url(#linearGradient4427);fill-opacity:1.0;stroke:none;stroke-width:0.94;stroke-miterlimit:4;stroke-dasharray:none;stroke-opacity:1"
       id="rect4418"
       width="745.71429"
       height="1061.4286"
       x="1.7794191"
       y="-0.98516923"
       ry="2.384114" />
    <path
       style="opacity:1;fill:#ffffff;fill-opacity:1;stroke:none;stroke-width:0.94;stroke-miterlimit:4;stroke-dasharray:none;stroke-opacity:1"
       d="M 186.61176,30.542541 C 176.06126,30.542541 167.24227,37.064711 165.06915,45.764541 C 142.43973,46.034731 122.80711,50.944831 112.32079,58.132441 C 109.14491,55.942681 105.25668,54.647891 101.05204,54.647891 C 90.363728,54.647891 81.696198,62.983091 81.696198,73.251271 C 81.696198,74.482601 81.822668,75.685801 82.060658,76.850451 C 66.180728,82.616221 56.026308,91.418611 56.026308,101.27675 C 56.026308,118.63142 87.492618,132.71797 126.26881,132.71797 C 127.40774,132.71797 128.54146,132.70763 129.66717,132.6836 C 129.2184,134.87029 128.97765,137.17013 128.97765,139.53809 C 128.97765,154.28954 138.25882,166.25682 149.69283,166.25682 C 155.51627,166.25682 160.77276,163.14952 164.53724,158.15296 C 168.73457,161.90017 174.15584,164.15923 180.08101,164.15923 C 189.65948,164.15923 197.93869,158.25184 201.82062,149.70518 C 211.14244,151.916 221.55502,153.15537 232.54371,153.15537 C 272.31416,153.15537 304.58882,136.96095 304.58882,117.0031 C 304.58882,102.70538 288.02403,90.338141 264.00558,84.472941 C 267.49553,80.803991 269.4725,76.625281 269.47249,72.196741 C 269.47249,57.589921 247.98358,45.741621 221.51137,45.741621 C 216.95268,45.741621 212.54971,46.093711 208.37107,46.750311 C 206.64104,37.561241 197.55748,30.542541 186.61176,30.542541 z "
       id="path4401" />
    <path
       style="opacity:1;fill:#ffffff;fill-opacity:1;stroke:none;stroke-width:0.94;stroke-miterlimit:4;stroke-dasharray:none;stroke-opacity:1"
       d="M 540.58991,104.50504 C 530.03941,104.50504 521.22042,111.02721 519.0473,119.72704 C 496.41788,119.99723 476.78526,124.90733 466.29894,132.09494 C 463.12306,129.90518 459.23483,128.61039 455.03019,128.61039 C 444.34188,128.61039 435.67435,136.94559 435.67435,147.21377 C 435.67435,148.4451 435.80082,149.6483 436.03881,150.81295 C 420.15888,156.57872 410.00446,165.38111 410.00446,175.23925 C 410.00446,192.59393 441.47077,206.68048 480.24696,206.68048 C 481.38589,206.68048 482.51961,206.67014 483.64532,206.64611 C 483.19655,208.8328 482.9558,211.13264 482.9558,213.5006 C 482.9558,228.25205 492.23697,240.21933 503.67098,240.21933 C 509.49442,240.21933 514.75091,237.11203 518.51539,232.11547 C 522.71272,235.86268 528.13399,238.12174 534.05916,238.12174 C 543.63763,238.12174 551.91684,232.21435 555.79877,223.66769 C 565.12059,225.87851 575.53317,227.11788 586.52186,227.11788 C 626.29231,227.11788 658.56697,210.92346 658.56697,190.96561 C 658.56697,176.66788 642.00218,164.30064 617.98373,158.43544 C 621.47368,154.76649 623.45065,150.58778 623.45064,146.15924 C 623.45064,131.55242 601.96173,119.70412 575.48952,119.70412 C 570.93083,119.70412 566.52786,120.05621 562.34922,120.71281 C 560.61919,111.52374 551.53563,104.50504 540.58991,104.50504 z "
       id="path4429" />
    <path
       style="opacity:1;fill:#ffffff;fill-opacity:1;stroke:none;stroke-width:0.94;stroke-miterlimit:4;stroke-dasharray:none;stroke-opacity:1"
       d="M 182.85689,272.38879 C 191.36035,275.44302 196.26354,284.13425 195.0742,292.95104 C 213.22164,299.75625 227.38531,310.06071 233.40739,319.86088 C 236.70729,318.71939 240.27879,318.62641 243.66764,319.8436 C 252.28216,322.93773 256.45042,333.29141 252.97944,342.95515 C 252.56321,344.114 252.05456,345.20976 251.46905,346.23696 C 262.31889,356.26036 267.52762,367.48416 264.19525,376.762 C 258.3288,393.09509 228.20598,397.24333 196.95328,386.01812 C 196.03532,385.68842 195.12506,385.35048 194.22589,385.00199 C 193.84842,387.18987 193.26503,389.42402 192.46458,391.65259 C 187.47811,405.53569 175.95238,414.11173 166.73683,410.80173 C 162.04328,409.11592 158.85704,404.66985 157.51195,398.87764 C 152.86233,401.1892 147.72928,401.74589 142.95373,400.03063 C 135.23371,397.25779 130.55775,389.30141 130.31805,380.13409 C 122.05755,379.51622 113.24631,377.66833 104.38968,374.48724 C 72.335633,362.97421 51.797253,338.38998 58.543653,319.60696 C 63.376753,306.15087 80.908113,299.30693 102.24905,300.74002 C 100.67645,296.27675 100.4956,291.77172 101.9926,287.60387 C 106.93018,273.85689 128.25485,268.92681 149.59084,276.59018 C 153.26504,277.90986 156.69471,279.51582 159.84064,281.34344 C 164.34121,273.19611 174.03489,269.22014 182.85689,272.38879 z "
       id="path4431" />
    <path
       style="opacity:1;fill:#ffffff;fill-opacity:1;stroke:none;stroke-width:0.94;stroke-miterlimit:4;stroke-dasharray:none;stroke-opacity:1"
       d="M 132.72756,581.6479 C 126.9674,581.6479 122.15258,585.28658 120.96614,590.14017 C 108.61136,590.29091 97.89272,593.03023 92.1676,597.04016 C 90.4337,595.8185 88.31088,595.09615 86.01531,595.09615 C 80.17991,595.09615 75.447777,599.74631 75.447777,605.47488 C 75.447777,606.16183 75.516827,606.83309 75.646757,607.48284 C 66.976937,610.69953 61.433027,615.61034 61.433027,621.11014 C 61.433027,630.79223 78.612397,638.65104 99.78268,638.65104 C 100.40449,638.65104 101.02345,638.64527 101.63805,638.63187 C 101.39304,639.85181 101.2616,641.13488 101.2616,642.45595 C 101.2616,650.68571 106.32875,657.36219 112.57127,657.36219 C 115.75064,657.36219 118.62048,655.62864 120.67574,652.84109 C 122.96731,654.93164 125.92711,656.19196 129.16202,656.19196 C 134.39149,656.19196 138.91162,652.89625 141.031,648.12812 C 146.12034,649.36152 151.8052,650.05296 157.8046,650.05296 C 179.5177,650.05296 197.1384,641.01818 197.1384,629.8838 C 197.1384,621.90717 188.09467,615.00755 174.98154,611.73539 C 176.88692,609.6885 177.96627,607.35722 177.96626,604.88656 C 177.96626,596.73749 166.23416,590.12739 151.78137,590.12739 C 149.29251,590.12739 146.88866,590.32382 144.60728,590.69013 C 143.66276,585.5636 138.70349,581.6479 132.72756,581.6479 z "
       id="path4433" />
    <path
       style="opacity:1;fill:#ffffff;fill-opacity:1;stroke:none;stroke-width:0.94;stroke-miterlimit:4;stroke-dasharray:none;stroke-opacity:1"
       d="M 540.05492,364.44821 C 529.66699,366.29321 522.12445,374.25709 521.50619,383.20289 C 499.27271,387.4262 480.80126,395.69386 471.73345,404.6045 C 468.22358,403.00386 464.16884,402.40897 460.02898,403.14425 C 449.50537,405.01335 442.42901,414.73584 444.22464,424.84579 C 444.43997,426.05815 444.7749,427.22069 445.21289,428.32578 C 430.58593,436.77968 422.12729,447.22218 423.85121,456.92841 C 426.88609,474.01567 460.3309,482.38253 498.50958,475.6016 C 499.63096,475.40244 500.7454,475.194 501.84956,474.97348 C 501.7901,477.20495 501.95524,479.51146 502.36934,481.84293 C 504.94898,496.36707 516.17989,506.52692 527.43771,504.52741 C 533.17142,503.50904 537.80353,499.5304 540.63624,493.95253 C 545.42418,496.908 551.15696,498.18421 556.99083,497.14805 C 566.4217,495.47303 573.54029,488.20885 575.86782,479.11504 C 585.43261,479.66166 595.90148,479.06105 606.72084,477.13941 C 645.87846,470.18461 674.82382,448.59575 671.33372,428.94543 C 668.83343,414.86802 650.36119,405.58809 625.68717,404.01346 C 628.48174,399.79075 629.6975,395.33071 628.92306,390.97041 C 626.36871,376.58867 603.13897,368.68078 577.07467,373.31007 C 572.58623,374.10726 570.31123,386.47636 566.3118,387.85357 C 563.00151,379.10863 550.83198,362.53409 540.05492,364.44821 z "
       id="path4435"
       sodipodi:nodetypes="cccsscsscsscscsscsscc" />
    <path
       style="opacity:1;fill:#ffffff;fill-opacity:1;stroke:none;stroke-width:0.94;stroke-miterlimit:4;stroke-dasharray:none;stroke-opacity:1"
       d="M 587.72756,641.64789 C 581.9674,641.64789 577.15258,645.28657 575.96614,650.14016 C 563.61136,650.2909 552.89272,653.03022 547.1676,657.04015 C 545.4337,655.81849 543.31088,655.09614 541.01531,655.09614 C 535.17991,655.09614 530.44778,659.7463 530.44778,665.47487 C 530.44778,666.16182 530.51683,666.83308 530.64676,667.48283 C 521.97694,670.69952 516.43303,675.61033 516.43303,681.11013 C 516.43303,690.79222 533.6124,698.65103 554.78268,698.65103 C 555.40449,698.65103 556.02345,698.64526 556.63805,698.63186 C 556.39304,699.8518 556.2616,701.13487 556.2616,702.45594 C 556.2616,710.6857 561.32875,717.36218 567.57127,717.36218 C 570.75064,717.36218 573.62048,715.62863 575.67574,712.84108 C 577.96731,714.93163 580.92711,716.19195 584.16202,716.19195 C 589.39149,716.19195 593.91162,712.89624 596.031,708.12811 C 601.12034,709.36151 606.8052,710.05295 612.8046,710.05295 C 634.5177,710.05295 652.1384,701.01817 652.1384,689.88379 C 652.1384,681.90716 643.09467,675.00754 629.98154,671.73538 C 631.88692,669.68849 632.96627,667.35721 632.96626,664.88655 C 632.96626,656.73748 621.23416,650.12738 606.78137,650.12738 C 604.29251,650.12738 601.88866,650.32381 599.60728,650.69012 C 598.66276,645.56359 593.70349,641.64789 587.72756,641.64789 z "
       id="path4437" />
    <path
       style="opacity:1;fill:#ffffff;fill-opacity:1;stroke:none;stroke-width:0.94;stroke-miterlimit:4;stroke-dasharray:none;stroke-opacity:1"
       d="M 416.09897,724.5496 C 410.44628,725.65708 406.42089,730.15361 406.18977,735.14475 C 394.09448,737.66809 384.1025,742.41714 379.25517,747.453 C 377.31873,746.58751 375.09663,746.28678 372.84389,746.72814 C 367.11737,747.8501 363.36759,753.32333 364.46901,758.94502 C 364.60108,759.61915 364.79791,760.26461 365.05034,760.87726 C 357.16074,765.70085 352.66444,771.58595 353.72187,776.98313 C 355.58341,786.48458 373.95325,790.89375 394.72855,786.82341 C 395.33876,786.70386 395.94506,786.57919 396.54562,786.44788 C 396.53973,787.69216 396.65744,788.97657 396.91143,790.27299 C 398.49374,798.3492 404.75002,803.92688 410.87607,802.72665 C 413.99612,802.11536 416.47911,799.86238 417.96007,796.73168 C 420.61083,798.34263 423.75773,799.01037 426.93228,798.38841 C 432.06419,797.38295 435.86633,793.27966 437.02941,788.19301 C 442.26094,788.42488 447.97268,788.01042 453.86015,786.85693 C 475.16814,782.68223 490.723,770.42814 488.58223,759.5015 C 487.04859,751.67369 476.84703,746.64161 463.34943,745.95171 C 464.82571,743.57667 465.43669,741.08136 464.96166,738.6568 C 463.39487,730.65977 450.61075,726.42869 436.42761,729.20747 C 433.98519,729.686 431.66395,730.34094 429.49557,731.13905 C 427.58301,726.28977 421.96341,723.40063 416.09897,724.5496 z "
       id="path4439" />
    <path
       style="opacity:1;fill:#ffffff;fill-opacity:1;stroke:none;stroke-width:0.94;stroke-miterlimit:4;stroke-dasharray:none;stroke-opacity:1"
       d="M 184.87042,765.93361 C 179.11026,765.93361 174.29544,769.57229 173.109,774.42588 C 160.75422,774.57662 150.03558,777.31594 144.31046,781.32587 C 142.57656,780.10421 140.45374,779.38186 138.15817,779.38186 C 132.32277,779.38186 127.59064,784.03202 127.59064,789.76059 C 127.59064,790.44754 127.65969,791.1188 127.78962,791.76855 C 119.1198,794.98524 113.57589,799.89605 113.57589,805.39585 C 113.57589,815.07794 130.75526,822.93675 151.92554,822.93675 C 152.54735,822.93675 153.16631,822.93098 153.78091,822.91758 C 153.5359,824.13752 153.40446,825.42059 153.40446,826.74166 C 153.40446,834.97142 158.47161,841.6479 164.71413,841.6479 C 167.8935,841.6479 170.76334,839.91435 172.8186,837.1268 C 175.11017,839.21735 178.06997,840.47767 181.30488,840.47767 C 186.53435,840.47767 191.05448,837.18196 193.17386,832.41383 C 198.2632,833.64723 203.94806,834.33867 209.94746,834.33867 C 231.66056,834.33867 249.28126,825.30389 249.28126,814.16951 C 249.28126,806.19288 240.23753,799.29326 227.1244,796.0211 C 229.02978,793.97421 230.10913,791.64293 230.10912,789.17227 C 230.10912,781.0232 218.37702,774.4131 203.92423,774.4131 C 201.43537,774.4131 199.03152,774.60953 196.75014,774.97584 C 195.80562,769.84931 190.84635,765.93361 184.87042,765.93361 z "
       id="path4441" />
    <path
       style="opacity:1;fill:#ffffff;fill-opacity:1;stroke:none;stroke-width:0.94;stroke-miterlimit:4;stroke-dasharray:none;stroke-opacity:1"
       d="M 367.56709,562.45885 C 362.00989,560.94327 356.40733,563.18688 353.98564,567.55728 C 342.02653,564.45198 330.96481,564.27453 324.38634,566.6368 C 323.03497,565.00197 321.17701,563.74653 318.96233,563.14253 C 313.33254,561.60714 307.54363,564.84836 306.03635,570.37508 C 305.8556,571.03782 305.7456,571.7036 305.69999,572.36464 C 296.4893,573.18682 289.84862,576.46591 288.40154,581.77192 C 285.85403,591.11285 300.3603,603.21491 320.78463,608.78514 C 321.38453,608.94875 321.9832,609.10604 322.57967,609.25482 C 322.02231,610.36731 321.5579,611.57059 321.21031,612.84511 C 319.04493,620.78489 322.17685,628.55936 328.19941,630.20187 C 331.26676,631.03841 334.4916,630.12104 337.20789,627.97248 C 338.86866,630.59232 341.39256,632.587 344.51348,633.43816 C 349.55869,634.81411 354.7867,632.82384 358.08597,628.78136 C 362.67146,631.31039 367.97408,633.47324 373.76209,635.05178 C 394.71011,640.76483 414.08713,636.68467 417.01675,625.94262 C 419.11553,618.24705 412.20586,609.211 400.41573,602.60387 C 402.79255,601.13044 404.44726,599.1653 405.09732,596.78169 C 407.24147,588.91976 397.66197,579.45567 383.71844,575.65292 C 381.31727,574.99806 378.94644,574.55508 376.64907,574.30821 C 377.0867,569.1138 373.33245,564.03121 367.56709,562.45885 z "
       id="path4443" />
    <path
       style="opacity:0.28;fill:#ffffff;fill-opacity:1;stroke:none;stroke-width:0.94;stroke-miterlimit:4;stroke-dasharray:none;stroke-opacity:1"
       d="M 564.9249,846.17531 C 559.27221,847.28279 555.24682,851.77932 555.0157,856.77046 C 542.92041,859.2938 532.92843,864.04285 528.0811,869.07871 C 526.14466,868.21322 523.92256,867.91249 521.66982,868.35385 C 515.9433,869.47581 512.19352,874.94904 513.29494,880.57073 C 513.42701,881.24486 513.62384,881.89032 513.87627,882.50297 C 505.98667,887.32656 501.49037,893.21166 502.5478,898.60884 C 504.40934,908.11029 522.77918,912.51946 543.55448,908.44912 C 544.16469,908.32957 544.77099,908.2049 545.37155,908.07359 C 545.36566,909.31787 545.48337,910.60228 545.73736,911.8987 C 547.31967,919.97491 553.57595,925.55259 559.702,924.35236 C 562.82205,923.74107 565.30504,921.48809 566.786,918.35739 C 569.43676,919.96834 572.58366,920.63608 575.75821,920.01412 C 580.89012,919.00866 584.69226,914.90537 585.85534,909.81872 C 591.08687,910.05059 596.79861,909.63613 602.68608,908.48264 C 623.99407,904.30794 639.54893,892.05385 637.40816,881.12721 C 635.87452,873.2994 625.67296,868.26732 612.17536,867.57742 C 613.65164,865.20238 614.26262,862.70707 613.78759,860.28251 C 612.2208,852.28548 599.43668,848.0544 585.25354,850.83318 C 582.81112,851.31171 580.48988,851.96665 578.3215,852.76476 C 576.40894,847.91548 570.78934,845.02634 564.9249,846.17531 z "
       id="path4445" />
    <path
       style="opacity:0.27999998;fill:#ffffff;fill-opacity:1;stroke:none;stroke-width:0.94;stroke-miterlimit:4;stroke-dasharray:none;stroke-opacity:1"
       d="M 294.9249,873.31816 C 289.27221,874.42566 285.24682,878.92216 285.0157,883.91336 C 272.92041,886.43666 262.92843,891.18576 258.0811,896.22156 C 256.14466,895.35606 253.92256,895.05536 251.66982,895.49676 C 245.9433,896.61866 242.19352,902.09186 243.29494,907.71356 C 243.42701,908.38776 243.62384,909.03316 243.87627,909.64586 C 235.98667,914.46946 231.49037,920.35456 232.5478,925.75166 C 234.40934,935.25316 252.77918,939.66236 273.55448,935.59196 C 274.16469,935.47246 274.77099,935.34776 275.37155,935.21646 C 275.36566,936.46076 275.48337,937.74516 275.73736,939.04156 C 277.31967,947.11776 283.57595,952.69546 289.702,951.49526 C 292.82205,950.88396 295.30504,948.63096 296.786,945.50026 C 299.43676,947.11116 302.58366,947.77896 305.75821,947.15696 C 310.89012,946.15156 314.69226,942.04826 315.85534,936.96156 C 321.08687,937.19346 326.79861,936.77896 332.68608,935.62546 C 353.99407,931.45076 369.54893,919.19676 367.40816,908.27006 C 365.87452,900.44226 355.67296,895.41016 342.17536,894.72026 C 343.65164,892.34526 344.26262,889.84996 343.78759,887.42536 C 342.2208,879.42836 329.43668,875.19726 315.25354,877.97606 C 312.81112,878.45456 310.48988,879.10956 308.3215,879.90766 C 306.40894,875.05836 300.78934,872.16916 294.9249,873.31816 z "
       id="path4447" />
    <path
       style="opacity:0.27999998;fill:#ffffff;fill-opacity:1;stroke:none;stroke-width:0.94;stroke-miterlimit:4;stroke-dasharray:none;stroke-opacity:1"
       d="M 100.63918,857.60387 C 94.986493,858.71137 90.961103,863.20787 90.729983,868.19907 C 78.634693,870.72237 68.642713,875.47147 63.795383,880.50727 C 61.858943,879.64177 59.636843,879.34107 57.384103,879.78247 C 51.657583,880.90437 47.907803,886.37757 49.009223,891.99927 C 49.141293,892.67347 49.338123,893.31887 49.590553,893.93157 C 41.700953,898.75517 37.204653,904.64027 38.262083,910.03737 C 40.123623,919.53887 58.493463,923.94807 79.268763,919.87767 C 79.878973,919.75817 80.485273,919.63347 81.085833,919.50217 C 81.079943,920.74647 81.197653,922.03087 81.451643,923.32727 C 83.033953,931.40347 89.290233,936.98117 95.416283,935.78097 C 98.536333,935.16967 101.01932,932.91667 102.50028,929.78597 C 105.15104,931.39687 108.29794,932.06467 111.47249,931.44267 C 116.6044,930.43727 120.40654,926.33397 121.56962,921.24727 C 126.80115,921.47917 132.51289,921.06467 138.40036,919.91117 C 159.70835,915.73647 175.26321,903.48247 173.12244,892.55577 C 171.5888,884.72797 161.38724,879.69587 147.88964,879.00597 C 149.36592,876.63097 149.9769,874.13567 149.50187,871.71107 C 147.93508,863.71407 135.15096,859.48297 120.96782,862.26177 C 118.5254,862.74027 116.20416,863.39527 114.03578,864.19337 C 112.12322,859.34407 106.50362,856.45487 100.63918,857.60387 z "
       id="path4449" />
    <path
       style="opacity:0.27999998;fill:#ffffff;fill-opacity:1;stroke:none;stroke-width:0.94;stroke-miterlimit:4;stroke-dasharray:none;stroke-opacity:1;filter:url(#filter4481)"
       d="M 408.33148,235.04391 C 397.72171,237.45995 390.16629,247.26916 389.73249,258.15757 C 367.03035,263.66221 348.27598,274.02248 339.17784,285.00818 C 335.54324,283.12008 331.3725,282.46409 327.14424,283.42702 C 316.3959,285.87447 309.35778,297.81436 311.42508,310.07823 C 311.67297,311.54902 312.0424,312.95697 312.51621,314.29358 C 297.70789,324.81637 289.26859,337.65485 291.25333,349.42874 C 294.74733,370.15648 329.22644,379.77524 368.22045,370.89558 C 369.36578,370.63489 370.50377,370.36285 371.63099,370.07641 C 371.61993,372.79088 371.84087,375.59282 372.3176,378.42095 C 375.2875,396.03936 387.03016,408.20724 398.52841,405.58897 C 404.38456,404.2554 409.04497,399.34044 411.82465,392.51075 C 416.79998,396.02496 422.70652,397.48177 428.66496,396.12488 C 438.29725,393.93157 445.43365,384.98014 447.61668,373.88338 C 457.43595,374.38928 468.15656,373.48504 479.20699,370.96866 C 519.20083,361.86146 548.39639,335.12908 544.3783,311.29225 C 541.49974,294.21574 522.35201,283.2381 497.01781,281.73306 C 499.7887,276.55195 500.93548,271.1084 500.04387,265.81908 C 497.1031,248.37345 473.10806,239.14321 446.48713,245.20522 C 441.90286,246.24908 437.54603,247.67798 433.47611,249.41905 C 429.88634,238.8402 419.33869,232.53734 408.33148,235.04391 z "
       id="path4451"
       transform="matrix(0.7410598,0,0,0.7000345,75.342881,121.76904)" />
    <path
       style="opacity:0.27999998;fill:#ffffff;fill-opacity:1;stroke:none;stroke-width:0.94;stroke-miterlimit:4;stroke-dasharray:none;stroke-opacity:1;filter:url(#filter4481)"
       d="M 261.9029,385.75819 C 251.29313,388.17423 243.73771,397.98344 243.30391,408.87185 C 220.60177,414.37649 201.8474,424.73676 192.74926,435.72246 C 189.11466,433.83436 184.94392,433.17837 180.71566,434.1413 C 169.96732,436.58875 162.9292,448.52864 164.9965,460.79251 C 165.24439,462.2633 165.61382,463.67125 166.08763,465.00786 C 151.27931,475.53065 142.84001,488.36913 144.82475,500.14302 C 148.31875,520.87076 182.79786,530.48952 221.79187,521.60986 C 222.9372,521.34917 224.07519,521.07713 225.20241,520.79069 C 225.19135,523.50516 225.41229,526.3071 225.88902,529.13523 C 228.85892,546.75364 240.60158,558.92152 252.09983,556.30325 C 257.95598,554.96968 262.61639,550.05472 265.39607,543.22503 C 270.3714,546.73924 276.27794,548.19605 282.23638,546.83916 C 291.86867,544.64585 299.00507,535.69442 301.1881,524.59766 C 311.00737,525.10356 321.72798,524.19932 332.77841,521.68294 C 372.77225,512.57574 401.96781,485.84336 397.94972,462.00653 C 395.07116,444.93002 375.92343,433.95238 350.58923,432.44734 C 353.36012,427.26623 354.5069,421.82268 353.61529,416.53336 C 350.67452,399.08773 326.67948,389.85749 300.05855,395.9195 C 295.47428,396.96336 291.11745,398.39226 287.04753,400.13333 C 283.45776,389.55448 272.91011,383.25162 261.9029,385.75819 z "
       id="path4485"
       transform="matrix(0.6847684,0,0,0.600046,4.1342845,205.49464)" />
    <path
       style="opacity:0.27999998;fill:#ffffff;fill-opacity:1;stroke:none;stroke-width:0.94;stroke-miterlimit:4;stroke-dasharray:none;stroke-opacity:1;filter:url(#filter4481)"
       d="M 408.33148,235.04391 C 397.72171,237.45995 390.16629,247.26916 389.73249,258.15757 C 367.03035,263.66221 348.27598,274.02248 339.17784,285.00818 C 335.54324,283.12008 331.3725,282.46409 327.14424,283.42702 C 316.3959,285.87447 309.35778,297.81436 311.42508,310.07823 C 311.67297,311.54902 312.0424,312.95697 312.51621,314.29358 C 297.70789,324.81637 289.26859,337.65485 291.25333,349.42874 C 294.74733,370.15648 329.22644,379.77524 368.22045,370.89558 C 369.36578,370.63489 370.50377,370.36285 371.63099,370.07641 C 371.61993,372.79088 371.84087,375.59282 372.3176,378.42095 C 375.2875,396.03936 387.03016,408.20724 398.52841,405.58897 C 404.38456,404.2554 409.04497,399.34044 411.82465,392.51075 C 416.79998,396.02496 422.70652,397.48177 428.66496,396.12488 C 438.29725,393.93157 445.43365,384.98014 447.61668,373.88338 C 457.43595,374.38928 468.15656,373.48504 479.20699,370.96866 C 519.20083,361.86146 548.39639,335.12908 544.3783,311.29225 C 541.49974,294.21574 522.35201,283.2381 497.01781,281.73306 C 499.7887,276.55195 500.93548,271.1084 500.04387,265.81908 C 497.1031,248.37345 473.10806,239.14321 446.48713,245.20522 C 441.90286,246.24908 437.54603,247.67798 433.47611,249.41905 C 429.88634,238.8402 419.33869,232.53734 408.33148,235.04391 z "
       id="path4487"
       transform="matrix(0.7410598,0,0,0.7000345,296.05715,-187.51668)" />
    <path
       style="opacity:0.27999998;fill:#ffffff;fill-opacity:1;stroke:none;stroke-width:0.94;stroke-miterlimit:4;stroke-dasharray:none;stroke-opacity:1;filter:url(#filter4481)"
       d="M 261.9029,385.75819 C 251.29313,388.17423 243.73771,397.98344 243.30391,408.87185 C 220.60177,414.37649 201.8474,424.73676 192.74926,435.72246 C 189.11466,433.83436 184.94392,433.17837 180.71566,434.1413 C 169.96732,436.58875 162.9292,448.52864 164.9965,460.79251 C 165.24439,462.2633 165.61382,463.67125 166.08763,465.00786 C 151.27931,475.53065 142.84001,488.36913 144.82475,500.14302 C 148.31875,520.87076 182.79786,530.48952 221.79187,521.60986 C 222.9372,521.34917 224.07519,521.07713 225.20241,520.79069 C 225.19135,523.50516 225.41229,526.3071 225.88902,529.13523 C 228.85892,546.75364 240.60158,558.92152 252.09983,556.30325 C 257.95598,554.96968 262.61639,550.05472 265.39607,543.22503 C 270.3714,546.73924 276.27794,548.19605 282.23638,546.83916 C 291.86867,544.64585 299.00507,535.69442 301.1881,524.59766 C 311.00737,525.10356 321.72798,524.19932 332.77841,521.68294 C 372.77225,512.57574 401.96781,485.84336 397.94972,462.00653 C 395.07116,444.93002 375.92343,433.95238 350.58923,432.44734 C 353.36012,427.26623 354.5069,421.82268 353.61529,416.53336 C 350.67452,399.08773 326.67948,389.85749 300.05855,395.9195 C 295.47428,396.96336 291.11745,398.39226 287.04753,400.13333 C 283.45776,389.55448 272.91011,383.25162 261.9029,385.75819 z "
       id="path4489"
       transform="matrix(0.6847684,0,0,0.600046,121.27715,415.49465)" />
  </g>
</svg>
